<?xml version="1.0" encoding="UTF-8"?>
<!DOCTYPE svg PUBLIC "-//W3C//DTD SVG 1.1//EN" "http://www.w3.org/Graphics/SVG/1.1/DTD/svg11.dtd">
<!-- Creator: CorelDRAW 2018 (64-Bit) -->
<svg xmlns="http://www.w3.org/2000/svg" xml:space="preserve" width="100%" height="100%" version="1.1" style="shape-rendering:geometricPrecision; text-rendering:geometricPrecision; image-rendering:optimizeQuality; fill-rule:evenodd; clip-rule:evenodd"
viewBox="0 0 20319.98 5079.98"
 xmlns:xlink="http://www.w3.org/1999/xlink">
 <defs>
  <style type="text/css">
   <![CDATA[
    .fil0 {fill:#7F7F84}
    .fil1 {fill:url(#id0)}
   ]]>
  </style>
  <linearGradient id="id0" gradientUnits="userSpaceOnUse" x1="1629.67" y1="1135.27" x2="4987.4" y2="4304.9">
   <stop offset="0" style="stop-opacity:1; stop-color:#FF68C6"/>
   <stop offset="0.25098" style="stop-opacity:1; stop-color:#FEFFBA"/>
   <stop offset="0.501961" style="stop-opacity:1; stop-color:#6EFFE0"/>
   <stop offset="0.74902" style="stop-opacity:1; stop-color:#8967FF"/>
   <stop offset="1" style="stop-opacity:1; stop-color:#F853FF"/>
  </linearGradient>
 </defs>
 <g id="Layer_x0020_1">
  <metadata id="CorelCorpID_0Corel-Layer"/>
  <g id="_2081985968688">
   <path class="fil0" d="M11451.88 3599.9l0 -1891.31 526.44 0 0 2222.77c-251.96,0 -526.44,118.78 -526.44,-331.46zm-1291.89 -875.73c51.17,467.1 -34.5,852.1 -443.63,1090.01 -385.37,224.05 -1261.08,273.52 -1388.82,-229.14 -109.87,-432.39 296.96,-519.53 562.42,-577.77 321.85,-70.61 1016.66,-148.15 1270.03,-283.1zm-2120.27 -391.63l386.62 -0.32c45.71,-254.52 89.69,-403.04 322.54,-538.4 220.3,-128.07 511.89,-85.23 772.7,-85.23 180.98,0 491.81,-14.37 605.62,252.3 106.9,250.56 -57.71,427.33 -285.96,496.33 -634.68,191.9 -1596.4,42.14 -1866.16,707.57 -56.49,139.37 -54.95,218.27 -53.03,377.31 1.88,154.47 69.15,240.6 78.69,350.27 -278.33,5.89 -529.72,231.3 -526.5,-428.92l0.05 -1754.86 760.42 0c-10.87,39.65 -194.69,291.52 -194.99,623.95zm-955.4 -974.92l-455.77 7.28c-23.63,143.66 -13.75,190.5 -12.19,343.69l467.96 0 0 1988.79c0,298.62 154.87,623.93 487.45,623.93 464.48,0 348.99,-49.01 717.75,-103.06 117.7,-17.25 11.24,-3.24 234.9,66.81 336.45,105.43 930.76,75.49 1230.99,-100.34 171.29,-100.31 183.09,-124.98 316.12,-229.85 51.98,-40.97 43.48,-64.37 88.46,-99.83 45.8,414.24 199.82,427.28 472.97,427.28 65.4,0 179.54,-27.47 228.96,-63.51l-2.26 -333.79c-129.98,-11.9 -91.52,61.77 -272.39,-5.48 -146.65,-439.35 113.1,-1652.98 -149.3,-2170.95l623.93 0 0 2008.3c0,104.11 52.55,342.42 121.66,424.28 253.99,300.9 609.38,140.69 852.84,140.76 108.72,0.02 255.21,25.21 351.38,-19.12 0,-552.42 0.02,-1104.86 0,-1657.31 -0.03,-178.13 -15.59,-198.67 52.2,-357.23 123.81,-289.52 370.52,-559.16 708.22,-559.16 267.41,0 336.27,38.91 428.94,38.98 0,-64.98 -0.16,-130 0,-194.98l0.48 -156.46c-22.41,-91.24 -320.06,-116.51 -409.94,-116.51 -369.78,0 -599.7,253.14 -774.9,505.28 -13.61,-124.24 21.25,-277.91 -17.83,-394.97 -186.77,-34.17 -702.69,-13.49 -923.07,-12.83l0 -838.39 -389.98 0 0 838.39 -1091.88 0c-103.03,0 -252.03,-58.47 -370.47,-58.47l-467.95 0c-116.32,0 -259.35,58.47 -370.44,58.47l-1286.87 0 0 -838.39 -389.97 0 0 838.39z"/>
   <path class="fil0" d="M13713.63 2508.02c0,-183.29 164.29,-498.51 311.79,-604.61 373.65,-268.77 763.42,-334.54 1197.52,-163.78 317.41,124.84 576.67,478.13 576.97,826.88l-2086.28 0 0 -58.49zm2378.75 994.4c-132.01,-31.99 -265.32,-139.84 -384.94,-150.98 -107.79,147.82 -122.16,347.85 -420.94,495.47 -244.85,120.95 -496.9,161.73 -775,105.49 -533.24,-107.82 -818.29,-540.72 -817.37,-1034.92l2554.22 0c0,-427.45 -45.55,-783.96 -308.33,-1115.03 -217.47,-274 -562.7,-492.45 -920.41,-522.43 -393.91,-33 -797.24,-11.5 -1142.33,241.27 -290.08,212.47 -494.62,514.75 -568.8,874.05 -161.41,781.95 112.48,1612.96 889.85,1889.72 352.39,125.46 859.95,133.08 1198.89,-34.98 305.37,-151.42 613.73,-405.61 695.16,-747.66z"/>
   <path class="fil0" d="M18466.12 2724.17c50.07,457.01 -24.11,878.65 -443.19,1090.45 -193.95,98.01 -383.51,156.97 -604.52,155.91 -215.66,-1.06 -465.41,-1.06 -629.47,-150.77 -158.1,-144.28 -210.81,-363.77 -105.66,-564.86 83.18,-159.04 370.15,-217.19 528.17,-251.75 343.69,-75.17 967.55,-126.04 1254.67,-278.98zm-2107.46 -404.46c97.78,32.63 286.07,17.8 393.32,9.49 16.85,-217.37 30.55,-286.64 183.54,-440.39 310.98,-312.46 1265.79,-281.09 1450.83,-17.45 90.6,129.05 132.16,343.64 2.35,456.73 -480.34,418.42 -1946.9,9.54 -2142.01,977.68 -69.43,344.58 60.85,677.68 344.73,867.46 283.74,189.71 715.56,200.12 1058.99,146.28 397.37,-62.32 534.53,-208.85 815.71,-444.97 27.38,128.74 62.39,313.11 193.29,375.49 86.52,41.22 161.8,34.22 260.87,32.98 107.43,-1.34 153.88,-37.58 252.77,-39.68l0 -350.96c-120.86,-0.23 -177.86,49.4 -279.65,-32.31 -72.24,-218.57 -32.31,-1184.32 -32.31,-1488.53 0,-252.33 9.1,-433.32 -110.26,-650.18 -299.22,-543.7 -1356.34,-484.56 -1787.15,-311.33 -201.62,81.08 -298.87,164.08 -428.29,332.12 -87.44,113.53 -207.01,457.47 -176.73,577.57z"/>
   <path class="fil0" d="M19246.03 343.75c-32.57,70.23 -28.05,3846.71 -1.66,3925.77 78.62,26.23 285.7,26.23 364.32,0 33.21,-99.44 12.83,-3533.38 12.83,-3945.28 -110.22,0 -285.66,-28.92 -375.49,19.51z"/>
  </g>
  <g>
   <path class="fil1" d="M2921.58 3488.74l323.09 250.74c-137.04,210.99 -359.18,373.99 -579.75,483.36 -338.94,168.06 -846.51,160.44 -1198.9,34.98 -777.37,-276.77 -1051.25,-1107.77 -889.84,-1889.73 74.18,-359.29 278.72,-661.57 568.79,-874.04 345.1,-252.77 748.43,-274.28 1142.34,-241.28 357.71,29.99 702.94,248.44 920.4,522.44 189.9,239.23 266.36,491.74 294.15,774.72l2153.39 0c0.92,-494.2 -284.14,-927.1 -817.38,-1034.92 -278.1,-56.24 -530.15,-15.46 -774.99,105.49 -178.76,88.32 -303.8,227.11 -359.86,330.54l-330.63 -250.35c137.05,-210.99 359.19,-373.99 579.76,-483.36 338.94,-168.07 846.51,-160.44 1198.9,-34.98 777.37,276.76 1051.25,1107.77 889.84,1889.72 -74.18,359.3 -278.72,661.58 -568.8,874.05 -345.09,252.76 -748.42,274.27 -1142.33,241.27 -357.71,-29.98 -702.94,-248.43 -920.4,-522.43 -189.9,-239.23 -266.36,-491.74 -294.15,-774.73l-2153.39 0c-0.92,494.21 284.14,927.11 817.38,1034.93 278.09,56.24 530.15,15.45 774.99,-105.5 178.76,-88.31 311.33,-227.5 367.39,-330.92zm2714.16 -529.35c0,183.29 -164.29,498.51 -311.79,604.61 -373.65,268.77 -763.42,334.54 -1197.51,163.78 -317.41,-124.84 -576.68,-478.13 -576.97,-826.88l2086.27 0 0 58.49zm-4654.41 -478.61c0,-183.29 164.29,-498.51 311.79,-604.61 373.65,-268.77 763.41,-334.54 1197.51,-163.78 317.41,124.84 576.67,478.13 576.97,826.88l-2086.27 0 0 -58.49z"/>
   <path id="1" class="fil0" d="M2973.17 3421.94l323.09 250.74 30.37 23.56c-91.99,-120.26 -157.77,-244.26 -204.51,-373.79 -40.44,-112.12 -66.22,-227.49 -82.13,-347.56l-1990.95 0c14.4,204.44 82.65,393.4 201.48,543.86 125.5,158.9 308.51,275.87 545.22,323.73 129.11,26.11 252.24,29.69 371.51,12.71 119.36,-17 235.19,-54.76 349.57,-111.26 74.85,-36.97 141.06,-84.03 195.76,-133.3 62.27,-56.1 108.47,-114.05 134.59,-162.24l47.41 -87.45 78.59 61zm-51.59 66.8l323.09 250.74c-137.04,210.99 -359.18,373.99 -579.75,483.36 -338.94,168.06 -846.51,160.44 -1198.9,34.98 -777.37,-276.77 -1051.25,-1107.77 -889.84,-1889.73 74.18,-359.29 278.72,-661.57 568.79,-874.04 345.1,-252.77 748.43,-274.28 1142.34,-241.28 357.71,29.99 702.94,248.44 920.4,522.44 189.9,239.23 266.36,491.74 294.15,774.72l2153.39 0c0.92,-494.2 -284.14,-927.1 -817.38,-1034.92 -278.1,-56.24 -530.15,-15.46 -774.99,105.49 -178.76,88.32 -303.8,227.11 -359.86,330.54l-330.63 -250.35c137.05,-210.99 359.19,-373.99 579.76,-483.36 338.94,-168.07 846.51,-160.44 1198.9,-34.98 777.37,276.76 1051.25,1107.77 889.84,1889.72 -74.18,359.3 -278.72,661.58 -568.8,874.05 -345.09,252.76 -748.42,274.27 -1142.33,241.27 -357.71,-29.98 -702.94,-248.43 -920.4,-522.43 -189.9,-239.23 -266.36,-491.74 -294.15,-774.73l-2153.39 0c-0.92,494.21 284.14,927.11 817.38,1034.93 278.09,56.24 530.15,15.45 774.99,-105.5 178.76,-88.31 311.33,-227.5 367.39,-330.92zm2714.16 -529.35c0,183.29 -164.29,498.51 -311.79,604.61 -373.65,268.77 -763.42,334.54 -1197.51,163.78 -317.41,-124.84 -576.68,-478.13 -576.97,-826.88l2086.27 0 0 58.49zm-4654.41 -478.61c0,-183.29 164.29,-498.51 311.79,-604.61 373.65,-268.77 763.41,-334.54 1197.51,-163.78 317.41,124.84 576.67,478.13 576.97,826.88l-2086.27 0 0 -58.49zm2370.91 1248l-36.8 56.67c-68.88,106.06 -157.47,200.57 -256.3,282.96 -110.82,92.4 -234.29,169.39 -356.85,230.16 -174.21,86.38 -388.59,129.3 -605.16,135.61 -231.61,6.76 -467.19,-28.3 -659.22,-96.66 -392.58,-139.77 -664.24,-412.36 -822.76,-749.01 -172.78,-366.92 -209.91,-809.68 -121.65,-1237.29 38.82,-188.05 111.31,-361.33 211.72,-515.63 102.9,-158.12 234.89,-296.19 389.81,-409.66 184.26,-134.97 383.52,-208.11 588.92,-243.02 201.6,-34.27 407.56,-31.45 610.3,-14.47 185.16,15.52 366.78,77.89 531.03,171.12 170.11,96.55 321.84,226.52 439.54,371.82l36.8 -56.66c68.89,-106.06 157.48,-200.57 256.31,-282.96 110.82,-92.4 234.29,-169.39 356.85,-230.16 174.21,-86.38 388.58,-129.3 605.15,-135.61 231.62,-6.76 467.2,28.3 659.23,96.66 392.58,139.77 664.24,412.36 822.76,749 172.78,366.92 209.91,809.68 121.65,1237.29 -38.82,188.05 -111.31,361.34 -211.72,515.64 -102.9,158.12 -234.9,296.19 -389.82,409.66 -184.27,134.96 -383.51,208.1 -588.91,243.02 -201.6,34.26 -407.57,31.44 -610.3,14.46 -185.17,-15.51 -366.78,-77.88 -531.03,-171.11 -170.11,-96.56 -321.85,-226.52 -439.55,-371.83zm-60.46 -1983.1c91.29,119.71 156.66,243.14 203.17,372.04 40.44,112.12 66.21,227.49 82.13,347.55l1990.95 0c-14.4,-204.44 -82.65,-393.39 -201.48,-543.85 -125.5,-158.9 -308.51,-275.87 -545.22,-323.73 -129.12,-26.11 -252.25,-29.7 -371.52,-12.71 -119.36,16.99 -235.18,54.75 -349.56,111.25 -73.38,36.25 -136.89,82.05 -189.12,130.03 -61.92,56.88 -107.14,115.78 -133.7,164.8l-47.01 86.75 -78.33 -59.31 -330.63 -250.35 -29.68 -22.47zm2169.13 1504.67c47.64,-92.37 82.06,-189.66 88.91,-264.79l-1910.33 0c16.61,125.84 68.75,249.98 144.46,358.49 95.57,136.98 227.93,247.87 373.25,305.02 203.05,79.87 394.88,104.56 578.75,77.97 184.6,-26.69 363.12,-105.18 538.73,-231.5 63.05,-45.36 132.09,-140.18 186.23,-245.19zm-4304.75 -1060.53c-47.64,92.37 -82.06,189.66 -88.91,264.79l1910.33 0c-16.62,-125.84 -68.76,-249.99 -144.47,-358.5 -95.57,-136.97 -227.92,-247.86 -373.24,-305.01 -203.06,-79.87 -394.89,-104.56 -578.75,-77.97 -184.6,26.69 -363.13,105.18 -538.73,231.5 -63.05,45.36 -132.09,140.18 -186.23,245.19z"/>
  </g>
 </g>
</svg>
